# xmcd CD database file
#
# Track frame offsets:
#	150
#	44987
#	73424
#	107456
#	135775
#	159591
#	185427
#
# Disc length: 2757 seconds
#
# Revision: 0
# Processed by: cddbd v1.5.2PL0 Copyright (c) Steve Scherf et al.
# Submitted via: CDex 1.77
#
DISCID=600ac307
DTITLE=John Abercrombie - M
DYEAR=1980
DGENRE=Jazz
TTITLE0=Boat Song
TTITLE1=M
TTITLE2=What Are the Rules
TTITLE3=Flashback
TTITLE4=To Be
TTITLE5=Veils
TTITLE6=Pebbles
EXTD=YEAR: 1980
EXTT0=
EXTT1=
EXTT2=
EXTT3=
EXTT4=
EXTT5=
EXTT6=
PLAYORDER=
